<mxfile host="Electron" modified="2023-11-26T00:30:16.421Z" agent="Mozilla/5.0 (X11; Linux x86_64) AppleWebKit/537.36 (KHTML, like Gecko) draw.io/21.2.8 Chrome/112.0.5615.165 Electron/24.2.0 Safari/537.36" etag="Ts_--JAACjOG8B-qiRI5" version="21.2.8" type="device">
  <diagram id="C5RBs43oDa-KdzZeNtuy" name="Page-1">
    <mxGraphModel dx="2119" dy="575" grid="1" gridSize="10" guides="1" tooltips="1" connect="1" arrows="1" fold="1" page="1" pageScale="1" pageWidth="827" pageHeight="1169" math="0" shadow="0">
      <root>
        <mxCell id="WIyWlLk6GJQsqaUBKTNV-0" />
        <mxCell id="WIyWlLk6GJQsqaUBKTNV-1" parent="WIyWlLk6GJQsqaUBKTNV-0" />
        <mxCell id="QwNCPIfgqO4SO9C38pkO-0" value="&lt;h3 style=&quot;font-family: &amp;quot;Noto Sans Mono&amp;quot;; margin: 0px; font-size: 1.25em; color: rgb(50, 50, 50); text-align: start;&quot;&gt;Program 4&lt;/h3&gt;" style="text;html=1;strokeColor=none;fillColor=none;align=center;verticalAlign=middle;whiteSpace=wrap;rounded=0;" parent="WIyWlLk6GJQsqaUBKTNV-1" vertex="1">
          <mxGeometry x="-90" y="50" width="110" height="30" as="geometry" />
        </mxCell>
        <mxCell id="QwNCPIfgqO4SO9C38pkO-16" value="Rumning" style="swimlane;fontStyle=2;align=center;verticalAlign=top;childLayout=stackLayout;horizontal=1;startSize=26;horizontalStack=0;resizeParent=1;resizeLast=0;collapsible=1;marginBottom=0;rounded=0;shadow=0;strokeWidth=1;" parent="WIyWlLk6GJQsqaUBKTNV-1" vertex="1">
          <mxGeometry x="-90" y="372" width="160" height="164" as="geometry">
            <mxRectangle x="230" y="140" width="160" height="26" as="alternateBounds" />
          </mxGeometry>
        </mxCell>
        <mxCell id="QwNCPIfgqO4SO9C38pkO-17" value="- _distance: double" style="text;align=left;verticalAlign=top;spacingLeft=4;spacingRight=4;overflow=hidden;rotatable=0;points=[[0,0.5],[1,0.5]];portConstraint=eastwest;" parent="QwNCPIfgqO4SO9C38pkO-16" vertex="1">
          <mxGeometry y="26" width="160" height="26" as="geometry" />
        </mxCell>
        <mxCell id="QwNCPIfgqO4SO9C38pkO-20" value="" style="line;html=1;strokeWidth=1;align=left;verticalAlign=middle;spacingTop=-1;spacingLeft=3;spacingRight=3;rotatable=0;labelPosition=right;points=[];portConstraint=eastwest;" parent="QwNCPIfgqO4SO9C38pkO-16" vertex="1">
          <mxGeometry y="52" width="160" height="8" as="geometry" />
        </mxCell>
        <mxCell id="x-xCDd94acMXUNEY30mF-23" value="+ Rumning(Date, int, double)" style="text;align=left;verticalAlign=top;spacingLeft=4;spacingRight=4;overflow=hidden;rotatable=0;points=[[0,0.5],[1,0.5]];portConstraint=eastwest;" parent="QwNCPIfgqO4SO9C38pkO-16" vertex="1">
          <mxGeometry y="60" width="160" height="26" as="geometry" />
        </mxCell>
        <mxCell id="x-xCDd94acMXUNEY30mF-28" value="+ GetPace: double" style="text;align=left;verticalAlign=top;spacingLeft=4;spacingRight=4;overflow=hidden;rotatable=0;points=[[0,0.5],[1,0.5]];portConstraint=eastwest;fontStyle=2" parent="QwNCPIfgqO4SO9C38pkO-16" vertex="1">
          <mxGeometry y="86" width="160" height="26" as="geometry" />
        </mxCell>
        <mxCell id="x-xCDd94acMXUNEY30mF-27" value="+ GetSpeed: double" style="text;align=left;verticalAlign=top;spacingLeft=4;spacingRight=4;overflow=hidden;rotatable=0;points=[[0,0.5],[1,0.5]];portConstraint=eastwest;fontStyle=2" parent="QwNCPIfgqO4SO9C38pkO-16" vertex="1">
          <mxGeometry y="112" width="160" height="26" as="geometry" />
        </mxCell>
        <mxCell id="x-xCDd94acMXUNEY30mF-26" value="+ GetDistance: double" style="text;align=left;verticalAlign=top;spacingLeft=4;spacingRight=4;overflow=hidden;rotatable=0;points=[[0,0.5],[1,0.5]];portConstraint=eastwest;fontStyle=2" parent="QwNCPIfgqO4SO9C38pkO-16" vertex="1">
          <mxGeometry y="138" width="160" height="26" as="geometry" />
        </mxCell>
        <mxCell id="x-xCDd94acMXUNEY30mF-0" value="Activity" style="swimlane;fontStyle=2;align=center;verticalAlign=top;childLayout=stackLayout;horizontal=1;startSize=26;horizontalStack=0;resizeParent=1;resizeLast=0;collapsible=1;marginBottom=0;rounded=0;shadow=0;strokeWidth=1;" parent="WIyWlLk6GJQsqaUBKTNV-1" vertex="1">
          <mxGeometry x="165.5" y="80" width="180" height="218" as="geometry">
            <mxRectangle x="230" y="140" width="160" height="26" as="alternateBounds" />
          </mxGeometry>
        </mxCell>
        <mxCell id="x-xCDd94acMXUNEY30mF-1" value="- _date: Date" style="text;align=left;verticalAlign=top;spacingLeft=4;spacingRight=4;overflow=hidden;rotatable=0;points=[[0,0.5],[1,0.5]];portConstraint=eastwest;" parent="x-xCDd94acMXUNEY30mF-0" vertex="1">
          <mxGeometry y="26" width="180" height="26" as="geometry" />
        </mxCell>
        <mxCell id="x-xCDd94acMXUNEY30mF-2" value="- _length::int" style="text;align=left;verticalAlign=top;spacingLeft=4;spacingRight=4;overflow=hidden;rotatable=0;points=[[0,0.5],[1,0.5]];portConstraint=eastwest;rounded=0;shadow=0;html=0;" parent="x-xCDd94acMXUNEY30mF-0" vertex="1">
          <mxGeometry y="52" width="180" height="26" as="geometry" />
        </mxCell>
        <mxCell id="x-xCDd94acMXUNEY30mF-3" value="" style="line;html=1;strokeWidth=1;align=left;verticalAlign=middle;spacingTop=-1;spacingLeft=3;spacingRight=3;rotatable=0;labelPosition=right;points=[];portConstraint=eastwest;" parent="x-xCDd94acMXUNEY30mF-0" vertex="1">
          <mxGeometry y="78" width="180" height="8" as="geometry" />
        </mxCell>
        <mxCell id="x-xCDd94acMXUNEY30mF-4" value="+ GetDistance: double" style="text;align=left;verticalAlign=top;spacingLeft=4;spacingRight=4;overflow=hidden;rotatable=0;points=[[0,0.5],[1,0.5]];portConstraint=eastwest;fontStyle=2" parent="x-xCDd94acMXUNEY30mF-0" vertex="1">
          <mxGeometry y="86" width="180" height="26" as="geometry" />
        </mxCell>
        <mxCell id="x-xCDd94acMXUNEY30mF-20" value="+ GetSpeed: double" style="text;align=left;verticalAlign=top;spacingLeft=4;spacingRight=4;overflow=hidden;rotatable=0;points=[[0,0.5],[1,0.5]];portConstraint=eastwest;fontStyle=2" parent="x-xCDd94acMXUNEY30mF-0" vertex="1">
          <mxGeometry y="112" width="180" height="26" as="geometry" />
        </mxCell>
        <mxCell id="x-xCDd94acMXUNEY30mF-21" value="+ GetPace: double" style="text;align=left;verticalAlign=top;spacingLeft=4;spacingRight=4;overflow=hidden;rotatable=0;points=[[0,0.5],[1,0.5]];portConstraint=eastwest;fontStyle=2" parent="x-xCDd94acMXUNEY30mF-0" vertex="1">
          <mxGeometry y="138" width="180" height="26" as="geometry" />
        </mxCell>
        <mxCell id="x-xCDd94acMXUNEY30mF-22" value="+ virtual GetSummary:string" style="text;align=left;verticalAlign=top;spacingLeft=4;spacingRight=4;overflow=hidden;rotatable=0;points=[[0,0.5],[1,0.5]];portConstraint=eastwest;" parent="x-xCDd94acMXUNEY30mF-0" vertex="1">
          <mxGeometry y="164" width="180" height="26" as="geometry" />
        </mxCell>
        <mxCell id="x-xCDd94acMXUNEY30mF-5" value="+ Activity(Date, int)" style="text;align=left;verticalAlign=top;spacingLeft=4;spacingRight=4;overflow=hidden;rotatable=0;points=[[0,0.5],[1,0.5]];portConstraint=eastwest;" parent="x-xCDd94acMXUNEY30mF-0" vertex="1">
          <mxGeometry y="190" width="180" height="26" as="geometry" />
        </mxCell>
        <mxCell id="x-xCDd94acMXUNEY30mF-6" value="Cycling" style="swimlane;fontStyle=2;align=center;verticalAlign=top;childLayout=stackLayout;horizontal=1;startSize=26;horizontalStack=0;resizeParent=1;resizeLast=0;collapsible=1;marginBottom=0;rounded=0;shadow=0;strokeWidth=1;" parent="WIyWlLk6GJQsqaUBKTNV-1" vertex="1">
          <mxGeometry x="161" y="370" width="189" height="164" as="geometry">
            <mxRectangle x="230" y="140" width="160" height="26" as="alternateBounds" />
          </mxGeometry>
        </mxCell>
        <mxCell id="x-xCDd94acMXUNEY30mF-7" value="- _speed: double" style="text;align=left;verticalAlign=top;spacingLeft=4;spacingRight=4;overflow=hidden;rotatable=0;points=[[0,0.5],[1,0.5]];portConstraint=eastwest;" parent="x-xCDd94acMXUNEY30mF-6" vertex="1">
          <mxGeometry y="26" width="189" height="26" as="geometry" />
        </mxCell>
        <mxCell id="x-xCDd94acMXUNEY30mF-9" value="" style="line;html=1;strokeWidth=1;align=left;verticalAlign=middle;spacingTop=-1;spacingLeft=3;spacingRight=3;rotatable=0;labelPosition=right;points=[];portConstraint=eastwest;" parent="x-xCDd94acMXUNEY30mF-6" vertex="1">
          <mxGeometry y="52" width="189" height="8" as="geometry" />
        </mxCell>
        <mxCell id="x-xCDd94acMXUNEY30mF-24" value="+ Cycling(Date, int, double)" style="text;align=left;verticalAlign=top;spacingLeft=4;spacingRight=4;overflow=hidden;rotatable=0;points=[[0,0.5],[1,0.5]];portConstraint=eastwest;" parent="x-xCDd94acMXUNEY30mF-6" vertex="1">
          <mxGeometry y="60" width="189" height="26" as="geometry" />
        </mxCell>
        <mxCell id="x-xCDd94acMXUNEY30mF-31" value="+ GetDistance: double" style="text;align=left;verticalAlign=top;spacingLeft=4;spacingRight=4;overflow=hidden;rotatable=0;points=[[0,0.5],[1,0.5]];portConstraint=eastwest;fontStyle=2" parent="x-xCDd94acMXUNEY30mF-6" vertex="1">
          <mxGeometry y="86" width="189" height="26" as="geometry" />
        </mxCell>
        <mxCell id="x-xCDd94acMXUNEY30mF-30" value="+ GetSpeed: double" style="text;align=left;verticalAlign=top;spacingLeft=4;spacingRight=4;overflow=hidden;rotatable=0;points=[[0,0.5],[1,0.5]];portConstraint=eastwest;fontStyle=2" parent="x-xCDd94acMXUNEY30mF-6" vertex="1">
          <mxGeometry y="112" width="189" height="26" as="geometry" />
        </mxCell>
        <mxCell id="x-xCDd94acMXUNEY30mF-29" value="+ GetPace: double" style="text;align=left;verticalAlign=top;spacingLeft=4;spacingRight=4;overflow=hidden;rotatable=0;points=[[0,0.5],[1,0.5]];portConstraint=eastwest;fontStyle=2" parent="x-xCDd94acMXUNEY30mF-6" vertex="1">
          <mxGeometry y="138" width="189" height="26" as="geometry" />
        </mxCell>
        <mxCell id="x-xCDd94acMXUNEY30mF-12" value="Swimming" style="swimlane;fontStyle=2;align=center;verticalAlign=top;childLayout=stackLayout;horizontal=1;startSize=26;horizontalStack=0;resizeParent=1;resizeLast=0;collapsible=1;marginBottom=0;rounded=0;shadow=0;strokeWidth=1;" parent="WIyWlLk6GJQsqaUBKTNV-1" vertex="1">
          <mxGeometry x="410" y="372" width="195" height="164" as="geometry">
            <mxRectangle x="230" y="140" width="160" height="26" as="alternateBounds" />
          </mxGeometry>
        </mxCell>
        <mxCell id="x-xCDd94acMXUNEY30mF-13" value="- _number_of_laps: int" style="text;align=left;verticalAlign=top;spacingLeft=4;spacingRight=4;overflow=hidden;rotatable=0;points=[[0,0.5],[1,0.5]];portConstraint=eastwest;" parent="x-xCDd94acMXUNEY30mF-12" vertex="1">
          <mxGeometry y="26" width="195" height="26" as="geometry" />
        </mxCell>
        <mxCell id="x-xCDd94acMXUNEY30mF-15" value="" style="line;html=1;strokeWidth=1;align=left;verticalAlign=middle;spacingTop=-1;spacingLeft=3;spacingRight=3;rotatable=0;labelPosition=right;points=[];portConstraint=eastwest;" parent="x-xCDd94acMXUNEY30mF-12" vertex="1">
          <mxGeometry y="52" width="195" height="8" as="geometry" />
        </mxCell>
        <mxCell id="x-xCDd94acMXUNEY30mF-25" value="+ Swimming(Date, int, double)" style="text;align=left;verticalAlign=top;spacingLeft=4;spacingRight=4;overflow=hidden;rotatable=0;points=[[0,0.5],[1,0.5]];portConstraint=eastwest;" parent="x-xCDd94acMXUNEY30mF-12" vertex="1">
          <mxGeometry y="60" width="195" height="26" as="geometry" />
        </mxCell>
        <mxCell id="x-xCDd94acMXUNEY30mF-32" value="+ GetDistance: double" style="text;align=left;verticalAlign=top;spacingLeft=4;spacingRight=4;overflow=hidden;rotatable=0;points=[[0,0.5],[1,0.5]];portConstraint=eastwest;fontStyle=2" parent="x-xCDd94acMXUNEY30mF-12" vertex="1">
          <mxGeometry y="86" width="195" height="26" as="geometry" />
        </mxCell>
        <mxCell id="x-xCDd94acMXUNEY30mF-34" value="+ GetPace: double" style="text;align=left;verticalAlign=top;spacingLeft=4;spacingRight=4;overflow=hidden;rotatable=0;points=[[0,0.5],[1,0.5]];portConstraint=eastwest;fontStyle=2" parent="x-xCDd94acMXUNEY30mF-12" vertex="1">
          <mxGeometry y="112" width="195" height="26" as="geometry" />
        </mxCell>
        <mxCell id="x-xCDd94acMXUNEY30mF-33" value="+ GetSpeed: double" style="text;align=left;verticalAlign=top;spacingLeft=4;spacingRight=4;overflow=hidden;rotatable=0;points=[[0,0.5],[1,0.5]];portConstraint=eastwest;fontStyle=2" parent="x-xCDd94acMXUNEY30mF-12" vertex="1">
          <mxGeometry y="138" width="195" height="26" as="geometry" />
        </mxCell>
        <mxCell id="x-xCDd94acMXUNEY30mF-19" value="&lt;br&gt;&amp;nbsp;&lt;br&gt;&amp;nbsp;" style="text;whiteSpace=wrap;html=1;" parent="WIyWlLk6GJQsqaUBKTNV-1" vertex="1">
          <mxGeometry x="-90" y="127" width="100" height="70" as="geometry" />
        </mxCell>
        <mxCell id="x-xCDd94acMXUNEY30mF-38" value="" style="endArrow=block;endSize=10;endFill=0;shadow=0;strokeWidth=1;rounded=0;edgeStyle=elbowEdgeStyle;elbow=vertical;entryX=0.697;entryY=1.077;entryDx=0;entryDy=0;entryPerimeter=0;" parent="WIyWlLk6GJQsqaUBKTNV-1" source="x-xCDd94acMXUNEY30mF-12" target="x-xCDd94acMXUNEY30mF-5" edge="1">
          <mxGeometry width="160" relative="1" as="geometry">
            <mxPoint x="600" y="398" as="sourcePoint" />
            <mxPoint x="260" y="298" as="targetPoint" />
            <Array as="points">
              <mxPoint x="280" y="338" />
              <mxPoint x="440" y="328" />
            </Array>
          </mxGeometry>
        </mxCell>
        <mxCell id="x-xCDd94acMXUNEY30mF-39" value="" style="endArrow=block;endSize=10;endFill=0;shadow=0;strokeWidth=1;rounded=0;edgeStyle=elbowEdgeStyle;elbow=vertical;exitX=0.5;exitY=0;exitDx=0;exitDy=0;entryX=0.364;entryY=1.154;entryDx=0;entryDy=0;entryPerimeter=0;" parent="WIyWlLk6GJQsqaUBKTNV-1" edge="1">
          <mxGeometry width="160" relative="1" as="geometry">
            <mxPoint x="-10" y="371" as="sourcePoint" />
            <mxPoint x="231.01999999999998" y="299.004" as="targetPoint" />
            <Array as="points">
              <mxPoint x="170" y="339" />
              <mxPoint x="240" y="359" />
              <mxPoint x="450" y="337" />
            </Array>
          </mxGeometry>
        </mxCell>
        <mxCell id="x-xCDd94acMXUNEY30mF-40" value="" style="endArrow=block;endSize=10;endFill=0;shadow=0;strokeWidth=1;rounded=0;edgeStyle=elbowEdgeStyle;elbow=vertical;exitX=0.5;exitY=0;exitDx=0;exitDy=0;entryX=0.519;entryY=1.077;entryDx=0;entryDy=0;entryPerimeter=0;" parent="WIyWlLk6GJQsqaUBKTNV-1" source="x-xCDd94acMXUNEY30mF-6" target="x-xCDd94acMXUNEY30mF-5" edge="1">
          <mxGeometry width="160" relative="1" as="geometry">
            <mxPoint y="381" as="sourcePoint" />
            <mxPoint x="241.01999999999998" y="309.004" as="targetPoint" />
            <Array as="points">
              <mxPoint x="180" y="349" />
              <mxPoint x="250" y="369" />
              <mxPoint x="460" y="347" />
            </Array>
          </mxGeometry>
        </mxCell>
      </root>
    </mxGraphModel>
  </diagram>
</mxfile>
